<svg width="22" height="21" viewBox="0 0 22 21" fill="none" xmlns="http://www.w3.org/2000/svg">
<path d="M21.0001 18.59L17.0001 14.59C18.4255 12.7835 19.1048 10.4997 18.8984 8.2078C18.692 5.91595 17.6156 3.7902 15.8904 2.26744C14.1652 0.744674 11.9222 -0.0594216 9.62248 0.0204065C7.32273 0.100235 5.14092 1.05792 3.52544 2.69665C1.90996 4.33537 0.983537 6.53064 0.936569 8.83129C0.889601 11.1319 1.72566 13.3632 3.27291 15.0665C4.82016 16.7698 6.96107 17.8157 9.25564 17.9893C11.5502 18.163 13.8241 17.4511 15.6101 16L19.6101 20C19.8037 20.1431 20.0424 20.2116 20.2824 20.1928C20.5224 20.174 20.7476 20.0693 20.9166 19.8979C21.0856 19.7264 21.1871 19.4998 21.2024 19.2595C21.2178 19.0192 21.1459 18.7815 21.0001 18.59ZM10.0001 16C8.61559 16 7.26221 15.5894 6.11107 14.8203C4.95992 14.0511 4.06271 12.9579 3.5329 11.6788C3.00309 10.3997 2.86446 8.99223 3.13456 7.63436C3.40466 6.27649 4.07134 5.02921 5.05031 4.05024C6.02928 3.07128 7.27656 2.40459 8.63442 2.1345C9.99229 1.8644 11.3998 2.00302 12.6788 2.53284C13.9579 3.06265 15.0512 3.95986 15.8203 5.111C16.5895 6.26214 17.0001 7.61552 17.0001 8.99999C17.0001 10.8565 16.2626 12.637 14.9498 13.9497C13.637 15.2625 11.8566 16 10.0001 16Z" fill="#EEF5FF"/>
</svg>
