<?xml version="1.0" encoding="utf-8"?><svg viewBox="0 0 25 21" xmlns="http://www.w3.org/2000/svg" xmlns:xlink="http://www.w3.org/1999/xlink"><style>:root>svg{display:none}:root>svg:target{display:block}</style><svg fill="none" viewBox="0 0 22 21" id="Search" xmlns="http://www.w3.org/2000/svg"><path d="M21 18.59l-4-4A9 9 0 1015.61 16l4 4A1 1 0 0021 18.59zM10 16a7 7 0 110-14.001A7 7 0 0110 16z" fill="#EEF5FF"/></svg><svg fill="none" viewBox="0 0 12 20" id="left" xmlns="http://www.w3.org/2000/svg"><path d="M.801 10.713a1.02 1.02 0 010-1.427L9.77.296a1.007 1.007 0 111.425 1.426L2.938 10l8.257 8.277a1.01 1.01 0 010 1.428 1.007 1.007 0 01-1.425 0L.801 10.713z" fill="#1D1D1B"/></svg><svg fill="none" viewBox="0 0 25 20" id="menu" xmlns="http://www.w3.org/2000/svg"><path fill="#fff" d="M0 0h25v2H0zM0 7h25v2H0zM0 14h25v2H0z"/></svg><svg fill="none" viewBox="0 0 12 20" id="right" xmlns="http://www.w3.org/2000/svg"><path d="M11.198 10.713a1.02 1.02 0 000-1.427L2.231.296A1.007 1.007 0 10.806 1.721L9.062 10 .805 18.277a1.01 1.01 0 000 1.428 1.007 1.007 0 001.425 0l8.969-8.992z" fill="#1D1D1B"/></svg></svg>