<?xml version="1.0" encoding="utf-8"?><svg viewBox="0 0 25 21" xmlns="http://www.w3.org/2000/svg" xmlns:xlink="http://www.w3.org/1999/xlink"><style>:root>svg{display:none}:root>svg:target{display:block}</style><svg fill="none" viewBox="0 0 22 21" id="Search" xmlns="http://www.w3.org/2000/svg"><path d="M21 18.59l-4-4A9 9 0 1015.61 16l4 4A1 1 0 0021 18.59zM10 16a7 7 0 110-14.001A7 7 0 0110 16z" fill="#EEF5FF"/></svg><svg fill="none" viewBox="0 0 20 12" id="btn-select" xmlns="http://www.w3.org/2000/svg"><path d="M9.287 11.198a1.02 1.02 0 001.427 0l8.99-8.967A1.007 1.007 0 1018.279.806L10 9.061 1.723.805a1.01 1.01 0 00-1.428 0 1.007 1.007 0 000 1.425l8.992 8.968z" fill="#1D1D1B"/></svg><svg fill="none" viewBox="0 0 20 16" id="check" xmlns="http://www.w3.org/2000/svg"><path d="M17.601.678l-9.846 9.846L2.399 5.17 0 7.568l7.755 7.754L20 3.077l-2.399-2.4z" fill="#2D5CA6"/></svg><svg fill="none" viewBox="0 0 12 20" id="left" xmlns="http://www.w3.org/2000/svg"><path d="M.801 10.713a1.02 1.02 0 010-1.427L9.77.296a1.007 1.007 0 111.425 1.426L2.938 10l8.257 8.277a1.01 1.01 0 010 1.428 1.007 1.007 0 01-1.425 0L.801 10.713z" fill="#1D1D1B"/></svg><svg fill="none" viewBox="0 0 25 20" id="menu" xmlns="http://www.w3.org/2000/svg"><path fill="#fff" d="M0 0h25v2H0zM0 7h25v2H0zM0 14h25v2H0z"/></svg><svg fill="none" viewBox="0 0 10 10" id="radio" xmlns="http://www.w3.org/2000/svg"><circle cx="5" cy="5" r="5" fill="#2D5CA6"/></svg><svg fill="none" viewBox="0 0 12 20" id="right" xmlns="http://www.w3.org/2000/svg"><path d="M11.198 10.713a1.02 1.02 0 000-1.427L2.231.296A1.007 1.007 0 10.806 1.721L9.062 10 .805 18.277a1.01 1.01 0 000 1.428 1.007 1.007 0 001.425 0l8.969-8.992z" fill="#1D1D1B"/></svg><svg fill="none" viewBox="0 0 20 12" id="vector" xmlns="http://www.w3.org/2000/svg"><path d="M9.287.802a1.02 1.02 0 011.427 0l8.99 8.967a1.007 1.007 0 11-1.426 1.425L10 2.939l-8.277 8.256a1.01 1.01 0 01-1.428 0 1.007 1.007 0 010-1.425L9.287.802z" fill="#1D1D1B"/></svg></svg>